<svg xmlns="http://www.w3.org/2000/svg" width="18.676" height="18.671" viewBox="0 0 18.676 18.671">
  <path id="icon-instagram" d="M9.335,6.786a4.787,4.787,0,1,0,4.787,4.787A4.78,4.78,0,0,0,9.335,6.786Zm0,7.9a3.112,3.112,0,1,1,3.112-3.112,3.118,3.118,0,0,1-3.112,3.112Zm6.1-8.1a1.117,1.117,0,1,1-1.117-1.117A1.114,1.114,0,0,1,15.434,6.59ZM18.6,7.724A5.526,5.526,0,0,0,17.1,3.812,5.562,5.562,0,0,0,13.184,2.3c-1.542-.087-6.162-.087-7.7,0a5.554,5.554,0,0,0-3.912,1.5A5.544,5.544,0,0,0,.06,7.72c-.087,1.542-.087,6.162,0,7.7a5.526,5.526,0,0,0,1.508,3.912,5.569,5.569,0,0,0,3.912,1.508c1.542.087,6.162.087,7.7,0A5.526,5.526,0,0,0,17.1,19.335,5.562,5.562,0,0,0,18.6,15.423c.087-1.542.087-6.158,0-7.7Zm-1.992,9.353a3.151,3.151,0,0,1-1.775,1.775c-1.229.487-4.145.375-5.5.375s-4.279.108-5.5-.375a3.151,3.151,0,0,1-1.775-1.775c-.487-1.229-.375-4.146-.375-5.5s-.108-4.279.375-5.5A3.151,3.151,0,0,1,3.831,4.295c1.229-.487,4.145-.375,5.5-.375s4.279-.108,5.5.375A3.151,3.151,0,0,1,16.613,6.07c.487,1.229.375,4.145.375,5.5S17.1,15.852,16.613,17.077Z" transform="translate(0.005 -2.238)" fill="#20242f"/>
</svg>
