<svg xmlns="http://www.w3.org/2000/svg" width="21.329" height="14.073" viewBox="0 0 21.329 14.073">
  <path id="icon-youtube" d="M21.19,7.608a3.026,3.026,0,0,0-3.083-2.976c-2.308-.1-4.662-.132-7.066-.132h-.75c-2.4,0-4.758.037-7.066.132A3.031,3.031,0,0,0,.146,7.615C.041,8.92,0,10.224,0,11.529s.042,2.609.142,3.918A3.035,3.035,0,0,0,3.22,18.433c2.425.1,4.912.143,7.441.139s5.012-.037,7.441-.139a3.036,3.036,0,0,0,3.083-2.987c.1-1.308.146-2.613.142-3.921S21.29,8.916,21.19,7.608ZM8.624,15.124v-7.2l6.041,3.6Z" transform="translate(0 -4.5)" fill="#20242f"/>
</svg>
