<svg xmlns="http://www.w3.org/2000/svg" width="21.332" height="17.325" viewBox="0 0 21.332 17.325">
  <path id="icon-twitter" d="M19.139,7.7c.014.189.014.379.014.568A12.354,12.354,0,0,1,6.713,20.706,12.355,12.355,0,0,1,0,18.743a9.044,9.044,0,0,0,1.056.054A8.756,8.756,0,0,0,6.483,16.93,4.38,4.38,0,0,1,2.4,13.9a5.513,5.513,0,0,0,.826.068,4.624,4.624,0,0,0,1.15-.149A4.372,4.372,0,0,1,.866,9.526V9.472a4.4,4.4,0,0,0,1.976.555A4.378,4.378,0,0,1,1.489,4.179,12.427,12.427,0,0,0,10.5,8.754a4.935,4.935,0,0,1-.108-1,4.376,4.376,0,0,1,7.566-2.991,8.607,8.607,0,0,0,2.775-1.056,4.36,4.36,0,0,1-1.922,2.409,8.764,8.764,0,0,0,2.518-.677A9.4,9.4,0,0,1,19.139,7.7Z" transform="translate(0 -3.381)" fill="#20242f"/>
</svg>
